<svg width="20" height="20" viewBox="0 0 20 20" fill="none" xmlns="http://www.w3.org/2000/svg">
<path d="M20 10C20 8.6868 19.7414 7.3864 19.2388 6.1732C18.7363 4.9599 17.9997 3.8575 17.0711 2.9289C16.1425 2.0004 15.0401 1.2638 13.8268 0.7612C12.6136 0.2587 11.3132 0 10 0V2C11.5822 2 13.1289 2.4691 14.4444 3.348C15.76 4.227 16.7854 5.4763 17.391 6.938C17.7931 7.9088 18.0001 8.9493 18 10H20ZM0 8V3C0 2.7348 0.1054 2.4804 0.2929 2.2929C0.4804 2.1054 0.7348 2 1 2H6C6.2652 2 6.5196 2.1054 6.7071 2.2929C6.8947 2.4804 7 2.7348 7 3V7C7 7.2652 6.8947 7.5196 6.7071 7.7071C6.5196 7.8947 6.2652 8 6 8H4C4 10.1217 4.8429 12.1566 6.3432 13.6569C7.8434 15.1572 9.8783 16 12 16V14C12 13.7348 12.1054 13.4804 12.2929 13.2929C12.4804 13.1054 12.7348 13 13 13H17C17.2652 13 17.5196 13.1054 17.7071 13.2929C17.8947 13.4804 18 13.7348 18 14V19C18 19.2652 17.8947 19.5196 17.7071 19.7071C17.5196 19.8947 17.2652 20 17 20H12C5.373 20 0 14.627 0 8Z" fill="#316C6B"/>
</svg>
